<svg width="259" height="164" viewBox="0 0 259 164" fill="none" xmlns="http://www.w3.org/2000/svg">
<path d="M10 25.5714H15.1429V30.7143H10V25.5714ZM15.1429 25.5714H20.2857V30.7143H15.1429V25.5714ZM15.1429 30.7143H20.2857V35.8571H15.1429V30.7143ZM15.1429 35.8571H20.2857V41H15.1429V35.8571ZM15.1429 41H20.2857V46.1429H15.1429V41ZM10 41H15.1429V46.1429H10V41ZM10 35.8571H15.1429V41H10V35.8571ZM10 30.7143H15.1429V35.8571H10V30.7143ZM10 46.1429H15.1429V51.2857H10V46.1429ZM10 51.2857H15.1429V56.4286H10V51.2857ZM10 56.4286H15.1429V61.5714H10V56.4286ZM15.1429 51.2857H20.2857V56.4286H15.1429V51.2857ZM15.1429 46.1429H20.2857V51.2857H15.1429V46.1429ZM15.1429 56.4286H20.2857V61.5714H15.1429V56.4286ZM15.1429 61.5714H20.2857V66.7143H15.1429V61.5714ZM10 66.7143H15.1429V71.8571H10V66.7143ZM10 61.5714H15.1429V66.7143H10V61.5714ZM10 71.8571H15.1429V77H10V71.8571ZM15.1429 71.8571H20.2857V77H15.1429V71.8571ZM15.1429 66.7143H20.2857V71.8571H15.1429V66.7143ZM20.2857 71.8571H25.4286V77H20.2857V71.8571ZM25.4286 71.8571H30.5714V77H25.4286V71.8571ZM30.5714 71.8571H35.7143V77H30.5714V71.8571ZM30.5714 66.7143H35.7143V71.8571H30.5714V66.7143ZM25.4286 66.7143H30.5714V71.8571H25.4286V66.7143ZM20.2857 66.7143H25.4286V71.8571H20.2857V66.7143ZM20.2857 25.5714H25.4286V30.7143H20.2857V25.5714ZM25.4286 25.5714H30.5714V30.7143H25.4286V25.5714ZM30.5714 25.5714H35.7143V30.7143H30.5714V25.5714ZM35.7143 25.5714H40.8571V30.7143H35.7143V25.5714ZM30.5714 30.7143H35.7143V35.8571H30.5714V30.7143ZM25.4286 30.7143H30.5714V35.8571H25.4286V30.7143ZM20.2857 30.7143H25.4286V35.8571H20.2857V30.7143ZM20.2857 51.2857H25.4286V56.4286H20.2857V51.2857ZM25.4286 46.1429H30.5714V51.2857H25.4286V46.1429ZM20.2857 46.1429H25.4286V51.2857H20.2857V46.1429ZM25.4286 51.2857H30.5714V56.4286H25.4286V51.2857ZM35.7143 30.7143H40.8571V35.8571H35.7143V30.7143ZM35.7143 66.7143H40.8571V71.8571H35.7143V66.7143ZM35.7143 71.8571H40.8571V77H35.7143V71.8571ZM30.5714 46.1429H35.7143V51.2857H30.5714V46.1429ZM30.5714 51.2857H35.7143V56.4286H30.5714V51.2857ZM82 41V46.1429H76.8571V41H82ZM82 35.8571V41H76.8571V35.8571H82ZM76.8571 35.8571V41H71.7143V35.8571H76.8571ZM76.8571 41V46.1429H71.7143V41H76.8571ZM76.8571 46.1429V51.2857H71.7143V46.1429H76.8571ZM76.8571 51.2857V56.4286H71.7143V51.2857H76.8571ZM76.8571 56.4286V61.5714H71.7143V56.4286H76.8571ZM82 56.4286V61.5714H76.8571V56.4286H82ZM82 51.2857V56.4286H76.8571V51.2857H82ZM82 46.1429V51.2857H76.8571V46.1429H82ZM82 61.5714V66.7143H76.8571V61.5714H82ZM76.8571 61.5714V66.7143H71.7143V61.5714H76.8571ZM76.8571 66.7143V71.8571H71.7143V66.7143H76.8571ZM76.8571 71.8571V77H71.7143V71.8571H76.8571ZM82 71.8571V77H76.8571V71.8571H82ZM82 66.7143V71.8571H76.8571V66.7143H82ZM56.2857 71.8571V77H51.1429V71.8571H56.2857ZM51.1429 66.7143V71.8571H46V66.7143H51.1429ZM51.1429 61.5714V66.7143H46V61.5714H51.1429ZM51.1429 56.4286V61.5714H46V56.4286H51.1429ZM51.1429 51.2857V56.4286H46V51.2857H51.1429ZM51.1429 46.1429V51.2857H46V46.1429H51.1429ZM51.1429 41V46.1429H46V41H51.1429ZM56.2857 51.2857V56.4286H51.1429V51.2857H56.2857ZM56.2857 56.4286V61.5714H51.1429V56.4286H56.2857ZM56.2857 61.5714V66.7143H51.1429V61.5714H56.2857ZM56.2857 66.7143V71.8571H51.1429V66.7143H56.2857ZM56.2857 46.1429V51.2857H51.1429V46.1429H56.2857ZM61.4286 41V46.1429H56.2857V41H61.4286ZM61.4286 35.8571V41H56.2857V35.8571H61.4286ZM56.2857 35.8571V41H51.1429V35.8571H56.2857ZM56.2857 41V46.1429H51.1429V41H56.2857ZM66.5714 35.8571V41H61.4286V35.8571H66.5714ZM82 25.5714V30.7143H76.8571V25.5714H82ZM76.8571 25.5714V30.7143H71.7143V25.5714H76.8571ZM76.8571 30.7143V35.8571H71.7143V30.7143H76.8571ZM82 30.7143V35.8571H76.8571V30.7143H82ZM66.5714 71.8571V77H61.4286V71.8571H66.5714ZM61.4286 71.8571V77H56.2857V71.8571H61.4286ZM61.4286 66.7143V71.8571H56.2857V66.7143H61.4286ZM66.5714 66.7143V71.8571H61.4286V66.7143H66.5714ZM71.7143 66.7143V71.8571H66.5714V66.7143H71.7143ZM71.7143 35.8571V41H66.5714V35.8571H71.7143ZM71.7143 41V46.1429H66.5714V41H71.7143ZM66.5714 41V46.1429H61.4286V41H66.5714ZM123.156 71.8571H118.013V66.7143H123.156V71.8571ZM123.156 77H118.013V71.8571H123.156V77ZM118.013 77H112.871V71.8571H118.013V77ZM118.013 71.8571H112.871V66.7143H118.013V71.8571ZM118.013 66.7143H112.871V61.5714H118.013V66.7143ZM118.013 61.5714H112.871V56.4286H118.013V61.5714ZM118.013 56.4286H112.871V51.2857H118.013V56.4286ZM123.156 56.4286H118.013V51.2857H123.156V56.4286ZM123.156 61.5714H118.013V56.4286H123.156V61.5714ZM123.156 66.7143H118.013V61.5714H123.156V66.7143ZM123.156 51.2857H118.013V46.1429H123.156V51.2857ZM118.013 51.2857H112.871V46.1429H118.013V51.2857ZM118.013 46.1429H112.871V41H118.013V46.1429ZM118.013 41H112.871V35.8571H118.013V41ZM123.156 41H118.013V35.8571H123.156V41ZM123.156 46.1429H118.013V41H123.156V46.1429ZM97.442 41H92.2991V35.8571H97.442V41ZM92.2991 41H87.1562V35.8571H92.2991V41ZM92.2991 46.1429H87.1562V41H92.2991V46.1429ZM92.2991 51.2857H87.1562V46.1429H92.2991V51.2857ZM92.2991 56.4286H87.1562V51.2857H92.2991V56.4286ZM92.2991 61.5714H87.1562V56.4286H92.2991V61.5714ZM92.2991 66.7143H87.1562V61.5714H92.2991V66.7143ZM92.2991 71.8571H87.1562V66.7143H92.2991V71.8571ZM97.442 61.5714H92.2991V56.4286H97.442V61.5714ZM97.442 56.4286H92.2991V51.2857H97.442V56.4286ZM97.442 51.2857H92.2991V46.1429H97.442V51.2857ZM97.442 46.1429H92.2991V41H97.442V46.1429ZM97.442 66.7143H92.2991V61.5714H97.442V66.7143ZM112.871 71.8571H107.728V66.7143H112.871V71.8571ZM107.728 71.8571H102.585V66.7143H107.728V71.8571ZM102.585 71.8571H97.442V66.7143H102.585V71.8571ZM102.585 77H97.442V71.8571H102.585V77ZM97.442 77H92.2991V71.8571H97.442V77ZM97.442 71.8571H92.2991V66.7143H97.442V71.8571ZM107.728 77H102.585V71.8571H107.728V77Z" fill="#6A00FF"/>
<path d="M10 86.5714H15.1429V91.7143H10V86.5714ZM15.1429 86.5714H20.2857V91.7143H15.1429V86.5714ZM15.1429 91.7143H20.2857V96.8571H15.1429V91.7143ZM15.1429 96.8571H20.2857V102H15.1429V96.8571ZM15.1429 102H20.2857V107.143H15.1429V102ZM10 102H15.1429V107.143H10V102ZM10 96.8571H15.1429V102H10V96.8571ZM10 91.7143H15.1429V96.8571H10V91.7143ZM10 107.143H15.1429V112.286H10V107.143ZM10 112.286H15.1429V117.429H10V112.286ZM10 117.429H15.1429V122.571H10V117.429ZM15.1429 112.286H20.2857V117.429H15.1429V112.286ZM15.1429 107.143H20.2857V112.286H15.1429V107.143ZM15.1429 117.429H20.2857V122.571H15.1429V117.429ZM15.1429 122.571H20.2857V127.714H15.1429V122.571ZM10 127.714H15.1429V132.857H10V127.714ZM10 122.571H15.1429V127.714H10V122.571ZM10 132.857H15.1429V138H10V132.857ZM15.1429 132.857H20.2857V138H15.1429V132.857ZM15.1429 127.714H20.2857V132.857H15.1429V127.714ZM20.2857 86.5714H25.4286V91.7143H20.2857V86.5714ZM25.4286 86.5714H30.5714V91.7143H25.4286V86.5714ZM30.5714 86.5714H35.7143V91.7143H30.5714V86.5714ZM35.7143 86.5714H40.8571V91.7143H35.7143V86.5714ZM30.5714 91.7143H35.7143V96.8571H30.5714V91.7143ZM25.4286 91.7143H30.5714V96.8571H25.4286V91.7143ZM20.2857 91.7143H25.4286V96.8571H20.2857V91.7143ZM20.2857 112.286H25.4286V117.429H20.2857V112.286ZM25.4286 107.143H30.5714V112.286H25.4286V107.143ZM20.2857 107.143H25.4286V112.286H20.2857V107.143ZM25.4286 112.286H30.5714V117.429H25.4286V112.286ZM35.7143 91.7143H40.8571V96.8571H35.7143V91.7143ZM30.5714 107.143H35.7143V112.286H30.5714V107.143ZM30.5714 112.286H35.7143V117.429H30.5714V112.286ZM107.594 127.714H112.737V132.857H107.594V127.714ZM107.594 122.571H112.737V127.714H107.594V122.571ZM112.737 122.571H117.879V127.714H112.737V122.571ZM112.737 127.714H117.879V132.857H112.737V127.714ZM112.737 117.429H117.879V122.571H112.737V117.429ZM117.879 117.429H123.022V122.571H117.879V117.429ZM128.165 117.429H133.308V122.571H128.165V117.429ZM133.308 117.429H138.451V122.571H133.308V117.429ZM133.308 127.714H138.451V132.857H133.308V127.714ZM138.451 127.714H143.594V132.857H138.451V127.714ZM138.451 122.571H143.594V127.714H138.451V122.571ZM117.879 112.286H123.022V117.429H117.879V112.286ZM123.022 112.286H128.165V117.429H123.022V112.286ZM128.165 112.286H133.308V117.429H128.165V112.286ZM128.165 107.143H133.308V112.286H128.165V107.143ZM133.308 107.143H138.451V112.286H133.308V107.143ZM133.308 102H138.451V107.143H133.308V102ZM133.308 96.8571H138.451V102H133.308V96.8571ZM138.451 96.8571H143.594V102H138.451V96.8571ZM138.451 102H143.594V107.143H138.451V102ZM117.879 107.143H123.022V112.286H117.879V107.143ZM112.737 107.143H117.879V112.286H112.737V107.143ZM112.737 102H117.879V107.143H112.737V102ZM112.737 96.8571H117.879V102H112.737V96.8571ZM107.594 96.8571H112.737V102H107.594V96.8571ZM107.594 102H112.737V107.143H107.594V102ZM117.879 122.571H123.022V127.714H117.879V122.571ZM128.165 122.571H133.308V127.714H128.165V122.571ZM133.308 122.571H138.451V127.714H133.308V122.571ZM117.879 102H123.022V107.143H117.879V102ZM128.165 102H133.308V107.143H128.165V102ZM123.022 107.143H128.165V112.286H123.022V107.143ZM123.022 117.429H128.165V122.571H123.022V117.429ZM107.594 132.857H112.737V138H107.594V132.857ZM112.737 132.857H117.879V138H112.737V132.857ZM133.308 132.857H138.451V138H133.308V132.857ZM138.451 132.857H143.594V138H138.451V132.857Z" fill="#6A00FF"/>
<path d="M81.8795 136.552C81.96 136.939 81.9946 137.364 81.9683 137.817C81.8957 139.015 81.4188 140.153 80.6156 141.044C79.9612 141.763 79.1207 142.286 78.1872 142.556L77.3425 142.8L76.9514 143.587C76.1801 145.141 74.9858 146.422 73.4871 147.303L73.4839 147.305C71.9541 148.207 70.2035 148.631 68.425 148.526C64.8246 148.315 61.7464 146.004 60.5276 142.618L60.2314 141.795L59.426 141.453C58.5283 141.073 57.7535 140.451 57.1876 139.658L57.1865 139.656C56.4978 138.692 56.153 137.496 56.2235 136.298C56.2511 135.827 56.3366 135.455 56.4593 135.136L57.4443 132.581L54.7105 132.42L45.1148 131.856C46.2095 125.215 50.7259 119.809 56.7164 117.385L57.8887 116.911L57.9629 115.649L58.6916 103.26C58.6916 103.259 58.6916 103.259 58.6917 103.259C58.7312 102.603 59.0013 101.981 59.4543 101.505L59.4554 101.504L71.6397 88.6686L71.6408 88.6675C71.7254 88.5782 71.8377 88.5371 71.953 88.5439C72.0682 88.5506 72.175 88.6046 72.2485 88.7032L72.2494 88.7044L82.8452 102.879L82.8451 102.879L82.8513 102.888C83.2425 103.405 83.4368 104.05 83.398 104.71L82.6692 117.102L82.5949 118.364L83.7035 118.972C89.3691 122.082 93.2206 127.981 93.5288 134.705L83.9537 134.148L81.3476 133.996L81.8795 136.552ZM71.0505 104.583L71.0098 104.58L70.969 104.579C69.5061 104.522 68.0795 105.042 66.9954 106.026C65.9112 107.009 65.2558 108.379 65.1699 109.84C65.0839 111.302 65.5742 112.739 66.5356 113.843C67.497 114.947 68.8528 115.63 70.3122 115.746L70.3529 115.749L70.3937 115.75C71.8565 115.807 73.2831 115.287 74.3673 114.303C75.4515 113.32 76.1069 111.95 76.1928 110.489C76.2788 109.027 75.7885 107.59 74.8271 106.486C73.8657 105.382 72.5098 104.699 71.0505 104.583ZM61.2298 140.695C61.7522 144.325 64.7942 147.152 68.4931 147.37C72.1907 147.587 75.5423 145.137 76.4878 141.596C77.2018 141.645 77.9156 141.501 78.5566 141.182C79.8918 140.525 80.7348 139.199 80.8338 137.757L80.8345 137.748L80.8351 137.738C80.9271 136.172 80.1234 134.793 78.8655 134.053L78.4503 133.809L77.9694 133.781L60.6825 132.764L60.2064 132.736L59.7688 132.926C58.4365 133.504 57.4655 134.781 57.3728 136.358C57.2863 137.827 57.9922 139.229 59.2192 140.033C59.8217 140.429 60.5157 140.656 61.2298 140.695Z" fill="#6A00FF" stroke="#6A00FF" stroke-width="4"/>
</svg>
