<svg width="139" height="164" viewBox="0 0 139 164" fill="none" xmlns="http://www.w3.org/2000/svg">
<path d="M0 25.5714H5.14286V30.7143H0V25.5714ZM5.14286 25.5714H10.2857V30.7143H5.14286V25.5714ZM5.14286 30.7143H10.2857V35.8571H5.14286V30.7143ZM5.14286 35.8571H10.2857V41H5.14286V35.8571ZM5.14286 41H10.2857V46.1429H5.14286V41ZM0 41H5.14286V46.1429H0V41ZM0 35.8571H5.14286V41H0V35.8571ZM0 30.7143H5.14286V35.8571H0V30.7143ZM0 46.1429H5.14286V51.2857H0V46.1429ZM0 51.2857H5.14286V56.4286H0V51.2857ZM0 56.4286H5.14286V61.5714H0V56.4286ZM5.14286 51.2857H10.2857V56.4286H5.14286V51.2857ZM5.14286 46.1429H10.2857V51.2857H5.14286V46.1429ZM5.14286 56.4286H10.2857V61.5714H5.14286V56.4286ZM5.14286 61.5714H10.2857V66.7143H5.14286V61.5714ZM0 66.7143H5.14286V71.8571H0V66.7143ZM0 61.5714H5.14286V66.7143H0V61.5714ZM0 71.8571H5.14286V77H0V71.8571ZM5.14286 71.8571H10.2857V77H5.14286V71.8571ZM5.14286 66.7143H10.2857V71.8571H5.142Q86V66.7143ZM10.2857 71.8571H15.4286V77H10.2857V71.8571ZM15.4286 71.8571H20.5714V77H15.4286V71.8571ZM20.5714 71.8571H25.7143V77H20.5714V71.8571ZM20.5714 66.7143H25.7143V71.8571H20.5714V66.7143ZM15.4286 66.7143H20.5714V71.8571H15.4286V66.7143ZM10.2857 66.7143H15.4286V71.8571H10.2857V66.7143ZM10.2857 25.5714H15.4286V30.7143H10.2857V25.5714ZM15.4286 25.5714H20.5714V30.7143H15.4286V25.5714ZM20.5714 25.5714H25.7143V30.7143H20.5714V25.5714ZM25.7143 25.5714H30.8571V30.7143H25.7143V25.5714ZM20.5714 30.7143H25.7143V35.8571H20.5714V30.7143ZM15.4286 30.7143H20.5714V35.8571H15.4286V30.7143ZM10.2857 30.7143H15.4286V35.8571H10.2857V30.7143ZM10.2857 51.2857H15.4286V56.4286H10.2857V51.2857ZM15.4286 46.1429H20.5714V51.2857H15.4286V46.1429ZM10.2857 46.1429H15.4286V51.2857H10.2857V46.1429ZM15.4286 51.2857H20.5714V56.4286H15.4286V51.2857ZM25.7143 30.7143H30.8571V35.8571H25.7143V30.7143ZM25.7143 66.7143H30.8571V71.8571H25.7143V66.7143ZM25.7143 71.8571H30.8571V77H25.7143V71.8571ZM20.5714 46.1429H25.7143V51.2857H20.5714V46.1429ZM20.5714 51.2857H25.7143V56.4286H20.5714V51.2857ZM72 41V46.1429H66.8571V41H72ZM72 35.8571V41H66.8571V35.8571H72ZM66.8571 35.8571V41H61.7143V35.8571H66.8571ZM66.8571 41V46.1429H61.7143V41H66.8571ZM66.8571 46.1429V51.2857H61.7143V46.1429H66.8571ZM66.8571 51.2857V56.4286H61.7143V51.2857H66.8571ZM66.8571 56.4286V61.5714H61.7143V56.4286H66.8571ZM72 56.4286V61.5714H66.8571V56.4286H72ZM72 51.2857V56.4286H66.8571V51.2857H72ZM72 46.1429V51.2857H66.8571V46.1429H72ZM72 61.5714V66.7143H66.8571V61.5714H72ZM66.8571 61.5714V66.7143H61.7143V61.5714H66.8571ZM66.8571 66.7143V71.8571H61.7143V66.7143H66.8571ZM66.8571 71.8571V77H61.7143V71.8571H66.8571ZM72 71.8571V77H66.8571V71.8571H72ZM72 66.7143V71.8571H66.8571V66.7143H72ZM46.2857 71.8571V77H41.1429V71.8571H46.2857ZM41.1429 66.7143V71.8571H36V66.7143H41.1429ZM41.1429 61.5714V66.7143H36V61.5714H41.1429ZM41.1429 56.4286V61.5714H36V56.4286H41.1429ZM41.1429 51.2857V56.4286H36V51.2857H41.1429ZM41.1429 46.1429V51.2857H36V46.1429H41.1429ZM41.1429 41V46.1429H36V41H41.1429ZM46.2857 51.2857V56.4286H41.1429V51.2857H46.2857ZM46.2857 56.4286V61.5714H41.1429V56.4286H46.2857ZM46.2857 61.5714V66.7143H41.1429V61.5714H46.2857ZM46.2857 66.7143V71.8571H41.1429V66.7143H46.2857ZM46.2857 46.1429V51.2857H41.1429V46.1429H46.2857ZM51.4286 41V46.1429H46.2857V41H51.4286ZM51.4286 35.8571V41H46.2857V35.8571H51.4286ZM46.2857 35.8571V41H41.1429V35.8571H46.2857ZM46.2857 41V46.1429H41.1429V41H46.2857ZM56.5714 35.8571V41H51.4286V35.8571H56.5714ZM72 25.5714V30.7143H66.8571V25.5714H72ZM66.8571 25.5714V30.7143H61.7143V25.5714H66.8571ZM66.8571 30.7143V35.8571H61.7143V30.7143H66.8571ZM72 30.7143V35.8571H66.8571V30.7143H72ZM56.5714 71.8571V77H51.4286V71.8571H56.5714ZM51.4286 71.8571V77H46.2857V71.8571H51.4286ZM51.4286 66.7143V71.8571H46.2857V66.7143H51.4286ZM56.5714 66.7143V71.8571H51.4286V66.7143H56.5714ZM61.7143 66.7143V71.8571H56.5714V66.7143H61.7143ZM61.7143 35.8571V41H56.5714V35.8571H61.7143ZM61.7143 41V46.1429H56.5714V41H61.7143ZM56.5714 41V46.1429H51.4286V41H56.5714ZM113.156 71.8571H108.013V66.7143H113.156V71.8571ZM113.156 77H108.013V71.8571H113.156V77ZM108.013 77H102.871V71.8571H108.013V77ZM108.013 71.8571H102.871V66.7143H108.013V71.8571ZM108.013 66.7143H102.871V61.5714H108.013V66.7143ZM108.013 61.5714H102.871V56.4286H108.013V61.5714ZM108.013 56.4286H102.871V51.2857H108.013V56.4286ZM113.156 56.4286H108.013V51.2857H113.156V56.4286ZM113.156 61.5714H108.013V56.4286H113.156V61.5714ZM113.156 66.7143H108.013V61.5714H113.156V66.7143ZM113.156 51.2857H108.013V46.1429H113.156V51.2857ZM108.013 51.2857H102.871V46.1429H108.013V51.2857ZM108.013 46.1429H102.871V41H108.013V46.1429ZM108.013 41H102.871V35.8571H108.013V41ZM113.156 41H108.013V35.8571H113.156V41ZM113.156 46.1429H108.013V41H113.156V46.1429ZM87.442 41H82.2991V35.8571H87.442V41ZM82.2991 41H77.1562V35.8571H82.2991V41ZM82.2991 46.1429H77.1562V41H82.2991V46.1429ZM82.2991 51.2857H77.1562V46.1429H82.2991V51.2857ZM82.2991 56.4286H77.1562V51.2857H82.2991V56.4286ZM82.2991 61.5714H77.1562V56.4286H82.2991V61.5714ZM82.2991 66.7143H77.1562V61.5714H82.2991V66.7143ZM82.2991 71.8571H77.1562V66.7143H82.2991V71.8571ZM87.442 61.5714H82.2991V56.4286H87.442V61.5714ZM87.442 56.4286H82.2991V51.2857H87.442V56.4286ZM87.442 51.2857H82.2991V46.1429H87.442V51.2857ZM87.442 46.1429H82.2991V41H87.442V46.1429ZM87.442 66.7143H82.2991V61.5714H87.442V66.7143ZM102.871 71.8571H97.7277V66.7143H102.871V71.8571ZM97.7277 71.8571H92.5848V66.7143H97.7277V71.8571ZM92.5848 71.8571H87.442V66.7143H92.5848V71.8571ZM92.5848 77H87.442V71.8571H92.5848V77ZM87.442 77H82.2991V71.8571H87.442V77ZM87.442 71.8571H82.2991V66.7143H87.442V71.8571ZM97.7277 77H92.5848V71.8571H97.7277V77Z" fill="#6A00FF"/>
<path d="M0 86.5714H5.14286V91.7143H0V86.5714ZM5.14286 86.5714H10.2857V91.7143H5.14286V86.5714ZM5.14286 91.7143H10.2857V96.8571H5.14286V91.7143ZM5.14286 96.8571H10.2857V102H5.14286V96.8571ZM5.14286 102H10.2857V107.143H5.14286V102ZM0 102H5.14286V107.143H0V102ZM0 96.8571H5.14286V102H0V96.8571ZM0 91.7143H5.14286V96.8571H0V91.7143ZM0 107.143H5.14286V112.286H0V107.143ZM0 112.286H5.14286V117.429H0V112.286ZM0 117.429H5.14286V122.571H0V117.429ZM5.14286 112.286H10.2857V117.429H5.14286V112.286ZM5.14286 107.143H10.2857V112.286H5.14286V107.143ZM5.14286 117.429H10.2857V122.571H5.14286V117.429ZM5.14286 122.571H10.2857V127.714H5.14286V122.571ZM0 127.714H5.14286V132.857H0V127.714ZM0 122.571H5.14286V127.714H0V122.571ZM0 132.857H5.14286V138H0V132.857ZM5.14286 132.857H10.2857V138H5.14286V132.857ZM5.14286 127.714H10.2857V132.857H5.14286V127.714ZM10.2857 86.5714H15.4286V91.7143H10.2857V86.5714ZM15.4286 86.5714H20.5714V91.7143H15.4286V86.5714ZM20.5714 86.5714H25.7143V91.7143H20.5714V86.5714ZM25.7143 86.5714H30.8571V91.7143H25.7143V86.5714ZM20.5714 91.7143H25.7143V96.8571H20.5714V91.7143ZM15.4286 91.7143H20.5714V96.8571H15.4286V91.7143ZM10.2857 91.7143H15.4286V96.8571H10.2857V91.7143ZM10.2857 112.286H15.4286V117.429H10.2857V112.286ZM15.4286 107.143H20.5714V112.286H15.4286V107.143ZM10.2857 107.143H15.4286V112.286H10.2857V107.143ZM15.4286 112.286H20.5714V117.429H15.4286V112.286ZM25.7143 91.7143H30.8571V96.8571H25.7143V91.7143ZM20.5714 107.143H25.7143V112.286H20.5714V107.143ZM20.5714 112.286H25.7143V117.429H20.5714V112.286ZM97.5938 127.714H102.737V132.857H97.5938V127.714ZM97.5938 122.571H102.737V127.714H97.5938V122.571ZM102.737 122.571H107.879V127.714H102.737V122.571ZM102.737 127.714H107.879V132.857H102.737V127.714ZM102.737 117.429H107.879V122.571H102.737V117.429ZM107.879 117.429H113.022V122.571H107.879V117.429ZM118.165 117.429H123.308V122.571H118.165V117.429ZM123.308 117.429H128.451V122.571H123.308V117.429ZM123.308 127.714H128.451V132.857H123.308V127.714ZM128.451 127.714H133.594V132.857H128.451V127.714ZM128.451 122.571H133.594V127.714H128.451V122.571ZM107.879 112.286H113.022V117.429H107.879V112.286ZM113.022 112.286H118.165V117.429H113.022V112.286ZM118.165 112.286H123.308V117.429H118.165V112.286ZM118.165 107.143H123.308V112.286H118.165V107.143ZM123.308 107.143H128.451V112.286H123.308V107.143ZM123.308 102H128.451V107.143H123.308V102ZM123.308 96.8571H128.451V102H123.308V96.8571ZM128.451 96.8571H133.594V102H128.451V96.8571ZM128.451 102H133.594V107.143H128.451V102ZM107.879 107.143H113.022V112.286H107.879V107.143ZM102.737 107.143H107.879V112.286H102.737V107.143ZM102.737 102H107.879V107.143H102.737V102ZM102.737 96.8571H107.879V102H102.737V96.8571ZM97.5938 96.8571H102.737V102H97.5938V96.8571ZM97.5938 102H102.737V107.143H97.5938V102ZM107.879 122.571H113.022V127.714H107.879V122.571ZM118.165 122.571H123.308V127.714H118.165V122.571ZM123.308 122.571H128.451V127.714H123.308V122.571ZM107.879 102H113.022V107.143H107.879V102ZM118.165 102H123.308V107.143H118.165V102ZM113.022 107.143H118.165V112.286H113.022V107.143ZM113.022 117.429H118.165V122.571H113.022V117.429ZM97.5938 132.857H102.737V138H97.5938V132.857ZM102.737 132.857H107.879V138H102.737V132.857ZM123.308 132.857H128.451V138H123.308V132.857ZM128.451 132.857H133.594V138H128.451V132.857Z" fill="#6A00FF"/>
<path d="M71.8795 136.552C71.96 136.939 71.9946 137.364 71.9683 137.817C71.8957 139.015 71.4188 140.153 70.6156 141.044C69.9612 141.763 69.1207 142.286 68.1872 142.556L67.3425 142.8L66.9514 143.587C66.1801 145.141 64.9858 146.422 63.4871 147.303L63.4839 147.305C61.9541 148.207 60.2035 148.631 58.425 148.526C54.8246 148.315 51.7464 146.004 50.5276 142.618L50.2314 141.795L49.426 141.453C48.5283 141.073 47.7535 140.451 47.1876 139.658L47.1865 139.656C46.4978 138.692 46.153 137.496 46.2235 136.298C46.2511 135.827 46.3366 135.455 46.4593 135.136L47.4443 132.581L44.7105 132.42L35.1148 131.856C36.2095 125.215 40.7259 119.809 46.7164 117.385L47.8887 116.911L47.9629 115.649L48.6916 103.26C48.6916 103.259 48.6916 103.259 48.6917 103.259C48.7312 102.603 49.0013 101.981 49.4543 101.505L49.4554 101.504L61.6397 88.6686L61.6408 88.6675C61.7254 88.5782 61.8377 88.5371 61.953 88.5439C62.0682 88.5506 62.175 88.6046 62.2485 88.7032L62.2494 88.7044L72.8452 102.879L72.8451 102.879L72.8513 102.888C73.2425 103.405 73.4368 104.05 73.398 104.71L72.6692 117.102L72.5949 118.364L73.7035 118.972C79.3691 122.082 83.2206 127.981 83.5288 134.705L73.9537 134.148L71.3476 133.996L71.8795 136.552ZM61.0505 104.583L61.0098 104.58L60.969 104.579C59.5061 104.522 58.0795 105.042 56.9954 106.026C55.9112 107.009 55.2558 108.379 55.1699 109.84C55.0839 111.302 55.5742 112.739 56.5356 113.843C57.497 114.947 58.8528 115.63 60.3122 115.746L60.3529 115.749L60.3937 115.75C61.8565 115.807 63.2831 115.287 64.3673 114.303C65.4515 113.32 66.1069 111.95 66.1928 110.489C66.2788 109.027 65.7885 107.59 64.8271 106.486C63.8657 105.382 62.5098 104.699 61.0505 104.583ZM51.2298 140.695C51.7522 144.325 54.7942 147.152 58.4931 147.37C62.1907 147.587 65.5423 145.137 66.4878 141.596C67.2018 141.645 67.9156 141.501 68.5566 141.182C69.8918 140.525 70.7348 139.199 70.8338 137.757L70.8345 137.748L70.8351 137.738C70.9271 136.172 70.1234 134.793 68.8655 134.053L68.4503 133.809L67.9694 133.781L50.6825 132.764L50.2064 132.736L49.7688 132.926C48.4365 133.504 47.4655 134.781 47.3728 136.358C47.2863 137.827 47.9922 139.229 49.2192 140.033C49.8217 140.429 50.5157 140.656 51.2298 140.695Z" fill="#6A00FF" stroke="#6A00FF" stroke-width="4"/>
</svg>
